 http://desibbrg.org/images/85214856223899147872.gif
 
http://desibbrg.org/images/87012995592000626397.jpg
 
http://desibbrg.org/images/08238782011362135749.jpg
 
http://i1306.photobucket.com/albums/s570/zyx55e/oie_11162011MOJeDGQI_zpsc25b2b81.gif
Video
ID : 224 (0xE0)
Format : MPEG Video
Format version : Version 2
Format profile : Main@Main
Format settings, BVOP : Yes
Format settings, Matrix : Default
Format settings, GOP : M=3, N=13
Duration : 1h 28mn
Bit rate mode : Variable
Bit rate : 710 Kbps
Maximum bit rate : 9 672 Kbps
Width : 352 pixels
Height : 288 pixels
Display aspect ratio : 4:3
Frame rate : 25.000 fps
Standard : PAL
Color space : YUV
Chroma subsampling : 4:2:0
Bit depth : 8 bits
Scan type : Progressive
Compression mode : Lossy
Bits/(Pixel*Frame) : 0.280
Stream size : 452 MiB (83%)

Audio
ID : 192 (0xC0)
Format : MPEG Audio
Format version : Version 1
Format profile : Layer 2
Duration : 1h 28mn
Bit rate mode : Constant
Bit rate : 128 Kbps
Channel(s) : 2 channels
Sampling rate : 48.0 KHz
Compression mode : Lossy
Stream size : 81.4 MiB (15%)

Ripper : Pakistani Baccha

Seeding 24x7... Extreme Seeding...


Enjoy! 
http://i1306.photobucket.com/albums/s570/zyx55e/oie_1117625zVIGKvnK_zpsc8b6e055.gif
